<mxfile host="app.diagrams.net" agent="Mozilla/5.0 (Windows NT 10.0; Win64; x64) AppleWebKit/537.36 (KHTML, like Gecko) Chrome/139.0.0.0 Safari/537.36" version="28.1.2">
  <diagram name="Page-1" id="JhrJfpT75P7cCqipNXHs">
    <mxGraphModel dx="2772" dy="865" grid="1" gridSize="10" guides="1" tooltips="1" connect="1" arrows="1" fold="1" page="1" pageScale="1" pageWidth="1169" pageHeight="827" math="0" shadow="0">
      <root>
        <mxCell id="0" />
        <mxCell id="1" parent="0" />
        <mxCell id="NdVPO9rs2lfAndKPiK9c-15" value="Student Information System" style="rounded=0;whiteSpace=wrap;html=1;labelBackgroundColor=none;fillColor=#F5AB50;strokeColor=#909090;fontColor=#1A1A1A;" vertex="1" parent="1">
          <mxGeometry x="-170" y="60" width="520" height="60" as="geometry" />
        </mxCell>
        <mxCell id="NdVPO9rs2lfAndKPiK9c-16" value="Admin" style="rounded=0;whiteSpace=wrap;html=1;labelBackgroundColor=none;fillColor=#F5AB50;strokeColor=#909090;fontColor=#1A1A1A;" vertex="1" parent="1">
          <mxGeometry x="-490" y="180" width="170" height="60" as="geometry" />
        </mxCell>
        <mxCell id="NdVPO9rs2lfAndKPiK9c-17" value="Login to&amp;nbsp;&lt;div&gt;System&lt;/div&gt;" style="ellipse;whiteSpace=wrap;html=1;labelBackgroundColor=none;fillColor=#F5AB50;strokeColor=#909090;fontColor=#1A1A1A;" vertex="1" parent="1">
          <mxGeometry x="-190" y="170" width="120" height="80" as="geometry" />
        </mxCell>
        <mxCell id="NdVPO9rs2lfAndKPiK9c-18" value="Check&lt;div&gt;Roles of&lt;/div&gt;&lt;div&gt;Access&lt;/div&gt;" style="ellipse;whiteSpace=wrap;html=1;labelBackgroundColor=none;fillColor=#F5AB50;strokeColor=#909090;fontColor=#1A1A1A;" vertex="1" parent="1">
          <mxGeometry x="50" y="180" width="120" height="80" as="geometry" />
        </mxCell>
        <mxCell id="NdVPO9rs2lfAndKPiK9c-19" value="Forgot&lt;div&gt;Password&lt;/div&gt;" style="ellipse;whiteSpace=wrap;html=1;labelBackgroundColor=none;fillColor=#F5AB50;strokeColor=#909090;fontColor=#1A1A1A;" vertex="1" parent="1">
          <mxGeometry x="-465" y="320" width="120" height="80" as="geometry" />
        </mxCell>
        <mxCell id="NdVPO9rs2lfAndKPiK9c-20" value="Send Email&lt;div&gt;to User&lt;/div&gt;" style="ellipse;whiteSpace=wrap;html=1;labelBackgroundColor=none;fillColor=#F5AB50;strokeColor=#909090;fontColor=#1A1A1A;" vertex="1" parent="1">
          <mxGeometry x="-465" y="480" width="120" height="80" as="geometry" />
        </mxCell>
        <mxCell id="NdVPO9rs2lfAndKPiK9c-22" value="Check&lt;div&gt;Credentials&lt;/div&gt;" style="ellipse;whiteSpace=wrap;html=1;labelBackgroundColor=none;fillColor=#F5AB50;strokeColor=#909090;fontColor=#1A1A1A;" vertex="1" parent="1">
          <mxGeometry x="-190" y="320" width="120" height="80" as="geometry" />
        </mxCell>
        <mxCell id="NdVPO9rs2lfAndKPiK9c-23" value="Manage&lt;div&gt;Modules&lt;/div&gt;" style="ellipse;whiteSpace=wrap;html=1;labelBackgroundColor=none;fillColor=#F5AB50;strokeColor=#909090;fontColor=#1A1A1A;" vertex="1" parent="1">
          <mxGeometry x="55" y="320" width="120" height="80" as="geometry" />
        </mxCell>
        <mxCell id="NdVPO9rs2lfAndKPiK9c-24" value="Manage System&lt;div&gt;Admins&lt;/div&gt;" style="rounded=0;whiteSpace=wrap;html=1;labelBackgroundColor=none;fillColor=#F5AB50;strokeColor=#909090;fontColor=#1A1A1A;" vertex="1" parent="1">
          <mxGeometry x="-500" y="680" width="210" height="80" as="geometry" />
        </mxCell>
        <mxCell id="NdVPO9rs2lfAndKPiK9c-26" value="Manage Roles of User" style="rounded=0;whiteSpace=wrap;html=1;labelBackgroundColor=none;fillColor=#F5AB50;strokeColor=#909090;fontColor=#1A1A1A;" vertex="1" parent="1">
          <mxGeometry x="-240" y="680" width="210" height="80" as="geometry" />
        </mxCell>
        <mxCell id="NdVPO9rs2lfAndKPiK9c-28" value="Manage User&lt;div&gt;Permission&lt;/div&gt;" style="rounded=0;whiteSpace=wrap;html=1;labelBackgroundColor=none;fillColor=#F5AB50;strokeColor=#909090;fontColor=#1A1A1A;" vertex="1" parent="1">
          <mxGeometry x="20" y="680" width="190" height="80" as="geometry" />
        </mxCell>
        <mxCell id="NdVPO9rs2lfAndKPiK9c-30" value="Manage Attendence Details" style="rounded=0;whiteSpace=wrap;html=1;labelBackgroundColor=none;fillColor=#F5AB50;strokeColor=#909090;fontColor=#1A1A1A;" vertex="1" parent="1">
          <mxGeometry x="280" y="230" width="340" height="60" as="geometry" />
        </mxCell>
        <mxCell id="NdVPO9rs2lfAndKPiK9c-31" value="Manage Class Details" style="rounded=0;whiteSpace=wrap;html=1;labelBackgroundColor=none;fillColor=#F5AB50;strokeColor=#909090;fontColor=#1A1A1A;" vertex="1" parent="1">
          <mxGeometry x="280" y="310" width="340" height="60" as="geometry" />
        </mxCell>
        <mxCell id="NdVPO9rs2lfAndKPiK9c-32" value="Manage Student Details" style="rounded=0;whiteSpace=wrap;html=1;labelBackgroundColor=none;fillColor=#F5AB50;strokeColor=#909090;fontColor=#1A1A1A;" vertex="1" parent="1">
          <mxGeometry x="280" y="390" width="340" height="60" as="geometry" />
        </mxCell>
        <mxCell id="NdVPO9rs2lfAndKPiK9c-33" value="Manage Fees Details" style="rounded=0;whiteSpace=wrap;html=1;labelBackgroundColor=none;fillColor=#F5AB50;strokeColor=#909090;fontColor=#1A1A1A;" vertex="1" parent="1">
          <mxGeometry x="280" y="470" width="340" height="60" as="geometry" />
        </mxCell>
        <mxCell id="NdVPO9rs2lfAndKPiK9c-34" value="Manage Teacher Profiles" style="rounded=0;whiteSpace=wrap;html=1;labelBackgroundColor=none;fillColor=#F5AB50;strokeColor=#909090;fontColor=#1A1A1A;" vertex="1" parent="1">
          <mxGeometry x="280" y="550" width="340" height="60" as="geometry" />
        </mxCell>
        <mxCell id="NdVPO9rs2lfAndKPiK9c-35" value="Manage Report" style="rounded=0;whiteSpace=wrap;html=1;labelBackgroundColor=none;fillColor=#F5AB50;strokeColor=#909090;fontColor=#1A1A1A;" vertex="1" parent="1">
          <mxGeometry x="280" y="630" width="350" height="60" as="geometry" />
        </mxCell>
        <mxCell id="NdVPO9rs2lfAndKPiK9c-36" value="Manage Timetable Details" style="rounded=0;whiteSpace=wrap;html=1;strokeColor=#909090;fontColor=#1A1A1A;fillColor=#F5AB50;" vertex="1" parent="1">
          <mxGeometry x="280" y="150" width="330" height="60" as="geometry" />
        </mxCell>
        <mxCell id="NdVPO9rs2lfAndKPiK9c-37" value="" style="endArrow=classic;html=1;rounded=0;strokeColor=#182E3E;fontColor=#1A1A1A;exitX=0.5;exitY=1;exitDx=0;exitDy=0;entryX=0.5;entryY=0;entryDx=0;entryDy=0;" edge="1" parent="1" source="NdVPO9rs2lfAndKPiK9c-16" target="NdVPO9rs2lfAndKPiK9c-19">
          <mxGeometry width="50" height="50" relative="1" as="geometry">
            <mxPoint x="80" y="450" as="sourcePoint" />
            <mxPoint x="130" y="400" as="targetPoint" />
          </mxGeometry>
        </mxCell>
        <mxCell id="NdVPO9rs2lfAndKPiK9c-38" value="" style="endArrow=classic;html=1;rounded=0;strokeColor=#182E3E;fontColor=#1A1A1A;exitX=0.5;exitY=1;exitDx=0;exitDy=0;entryX=0.5;entryY=0;entryDx=0;entryDy=0;" edge="1" parent="1" source="NdVPO9rs2lfAndKPiK9c-19" target="NdVPO9rs2lfAndKPiK9c-20">
          <mxGeometry width="50" height="50" relative="1" as="geometry">
            <mxPoint x="80" y="450" as="sourcePoint" />
            <mxPoint x="-410" y="470" as="targetPoint" />
          </mxGeometry>
        </mxCell>
        <mxCell id="NdVPO9rs2lfAndKPiK9c-39" value="" style="endArrow=classic;html=1;rounded=0;strokeColor=#182E3E;fontColor=#1A1A1A;exitX=1;exitY=0.5;exitDx=0;exitDy=0;entryX=0;entryY=0.5;entryDx=0;entryDy=0;" edge="1" parent="1" source="NdVPO9rs2lfAndKPiK9c-16" target="NdVPO9rs2lfAndKPiK9c-17">
          <mxGeometry width="50" height="50" relative="1" as="geometry">
            <mxPoint x="80" y="450" as="sourcePoint" />
            <mxPoint x="-200" y="210" as="targetPoint" />
          </mxGeometry>
        </mxCell>
        <mxCell id="NdVPO9rs2lfAndKPiK9c-41" value="" style="endArrow=classic;html=1;rounded=0;strokeColor=#182E3E;fontColor=#1A1A1A;exitX=0.5;exitY=1;exitDx=0;exitDy=0;" edge="1" parent="1" source="NdVPO9rs2lfAndKPiK9c-17" target="NdVPO9rs2lfAndKPiK9c-22">
          <mxGeometry width="50" height="50" relative="1" as="geometry">
            <mxPoint x="80" y="450" as="sourcePoint" />
            <mxPoint x="130" y="400" as="targetPoint" />
          </mxGeometry>
        </mxCell>
        <mxCell id="NdVPO9rs2lfAndKPiK9c-43" value="" style="endArrow=classic;html=1;rounded=0;strokeColor=#182E3E;fontColor=#1A1A1A;exitX=1;exitY=0.5;exitDx=0;exitDy=0;entryX=0.022;entryY=0.764;entryDx=0;entryDy=0;entryPerimeter=0;" edge="1" parent="1" source="NdVPO9rs2lfAndKPiK9c-22" target="NdVPO9rs2lfAndKPiK9c-18">
          <mxGeometry width="50" height="50" relative="1" as="geometry">
            <mxPoint x="80" y="450" as="sourcePoint" />
            <mxPoint x="130" y="400" as="targetPoint" />
          </mxGeometry>
        </mxCell>
        <mxCell id="NdVPO9rs2lfAndKPiK9c-45" value="" style="endArrow=classic;html=1;rounded=0;strokeColor=#182E3E;fontColor=#1A1A1A;exitX=0.5;exitY=1;exitDx=0;exitDy=0;entryX=0.5;entryY=0;entryDx=0;entryDy=0;" edge="1" parent="1" source="NdVPO9rs2lfAndKPiK9c-18" target="NdVPO9rs2lfAndKPiK9c-23">
          <mxGeometry width="50" height="50" relative="1" as="geometry">
            <mxPoint x="80" y="450" as="sourcePoint" />
            <mxPoint x="130" y="400" as="targetPoint" />
          </mxGeometry>
        </mxCell>
        <mxCell id="NdVPO9rs2lfAndKPiK9c-46" value="" style="endArrow=classic;html=1;rounded=0;strokeColor=#182E3E;fontColor=#1A1A1A;exitX=0.021;exitY=0.737;exitDx=0;exitDy=0;exitPerimeter=0;" edge="1" parent="1" source="NdVPO9rs2lfAndKPiK9c-23" target="NdVPO9rs2lfAndKPiK9c-24">
          <mxGeometry width="50" height="50" relative="1" as="geometry">
            <mxPoint x="80" y="450" as="sourcePoint" />
            <mxPoint x="130" y="400" as="targetPoint" />
          </mxGeometry>
        </mxCell>
        <mxCell id="NdVPO9rs2lfAndKPiK9c-47" value="" style="endArrow=classic;html=1;rounded=0;strokeColor=#182E3E;fontColor=#1A1A1A;entryX=0.409;entryY=-0.009;entryDx=0;entryDy=0;entryPerimeter=0;" edge="1" parent="1" source="NdVPO9rs2lfAndKPiK9c-23" target="NdVPO9rs2lfAndKPiK9c-26">
          <mxGeometry width="50" height="50" relative="1" as="geometry">
            <mxPoint x="80" y="490" as="sourcePoint" />
            <mxPoint x="130" y="440" as="targetPoint" />
          </mxGeometry>
        </mxCell>
        <mxCell id="NdVPO9rs2lfAndKPiK9c-48" value="" style="endArrow=classic;html=1;rounded=0;strokeColor=#182E3E;fontColor=#1A1A1A;exitX=0.5;exitY=1;exitDx=0;exitDy=0;entryX=0.165;entryY=-0.009;entryDx=0;entryDy=0;entryPerimeter=0;" edge="1" parent="1" source="NdVPO9rs2lfAndKPiK9c-23" target="NdVPO9rs2lfAndKPiK9c-28">
          <mxGeometry width="50" height="50" relative="1" as="geometry">
            <mxPoint x="80" y="490" as="sourcePoint" />
            <mxPoint x="130" y="440" as="targetPoint" />
          </mxGeometry>
        </mxCell>
        <mxCell id="NdVPO9rs2lfAndKPiK9c-49" value="" style="endArrow=classic;html=1;rounded=0;strokeColor=#182E3E;fontColor=#1A1A1A;exitX=0.749;exitY=0.03;exitDx=0;exitDy=0;exitPerimeter=0;entryX=0;entryY=0.5;entryDx=0;entryDy=0;" edge="1" parent="1" source="NdVPO9rs2lfAndKPiK9c-23" target="NdVPO9rs2lfAndKPiK9c-36">
          <mxGeometry width="50" height="50" relative="1" as="geometry">
            <mxPoint x="80" y="490" as="sourcePoint" />
            <mxPoint x="130" y="440" as="targetPoint" />
          </mxGeometry>
        </mxCell>
        <mxCell id="NdVPO9rs2lfAndKPiK9c-50" value="" style="endArrow=classic;html=1;rounded=0;strokeColor=#182E3E;fontColor=#1A1A1A;exitX=1;exitY=0;exitDx=0;exitDy=0;entryX=0;entryY=0.5;entryDx=0;entryDy=0;" edge="1" parent="1" source="NdVPO9rs2lfAndKPiK9c-23" target="NdVPO9rs2lfAndKPiK9c-30">
          <mxGeometry width="50" height="50" relative="1" as="geometry">
            <mxPoint x="80" y="490" as="sourcePoint" />
            <mxPoint x="130" y="440" as="targetPoint" />
          </mxGeometry>
        </mxCell>
        <mxCell id="NdVPO9rs2lfAndKPiK9c-51" value="" style="endArrow=classic;html=1;rounded=0;strokeColor=#182E3E;fontColor=#1A1A1A;exitX=1;exitY=0.5;exitDx=0;exitDy=0;entryX=0;entryY=0.5;entryDx=0;entryDy=0;" edge="1" parent="1" source="NdVPO9rs2lfAndKPiK9c-23" target="NdVPO9rs2lfAndKPiK9c-31">
          <mxGeometry width="50" height="50" relative="1" as="geometry">
            <mxPoint x="80" y="490" as="sourcePoint" />
            <mxPoint x="130" y="440" as="targetPoint" />
          </mxGeometry>
        </mxCell>
        <mxCell id="NdVPO9rs2lfAndKPiK9c-52" value="" style="endArrow=classic;html=1;rounded=0;strokeColor=#182E3E;fontColor=#1A1A1A;exitX=0.965;exitY=0.691;exitDx=0;exitDy=0;exitPerimeter=0;entryX=0;entryY=0.5;entryDx=0;entryDy=0;" edge="1" parent="1" source="NdVPO9rs2lfAndKPiK9c-23" target="NdVPO9rs2lfAndKPiK9c-32">
          <mxGeometry width="50" height="50" relative="1" as="geometry">
            <mxPoint x="80" y="490" as="sourcePoint" />
            <mxPoint x="130" y="440" as="targetPoint" />
          </mxGeometry>
        </mxCell>
        <mxCell id="NdVPO9rs2lfAndKPiK9c-53" value="" style="endArrow=classic;html=1;rounded=0;strokeColor=#182E3E;fontColor=#1A1A1A;exitX=0.944;exitY=0.768;exitDx=0;exitDy=0;exitPerimeter=0;entryX=0;entryY=0.25;entryDx=0;entryDy=0;" edge="1" parent="1" source="NdVPO9rs2lfAndKPiK9c-23" target="NdVPO9rs2lfAndKPiK9c-33">
          <mxGeometry width="50" height="50" relative="1" as="geometry">
            <mxPoint x="80" y="490" as="sourcePoint" />
            <mxPoint x="130" y="440" as="targetPoint" />
          </mxGeometry>
        </mxCell>
        <mxCell id="NdVPO9rs2lfAndKPiK9c-54" value="" style="endArrow=classic;html=1;rounded=0;strokeColor=#182E3E;fontColor=#1A1A1A;exitX=1;exitY=1;exitDx=0;exitDy=0;entryX=0;entryY=0.25;entryDx=0;entryDy=0;" edge="1" parent="1" source="NdVPO9rs2lfAndKPiK9c-23" target="NdVPO9rs2lfAndKPiK9c-34">
          <mxGeometry width="50" height="50" relative="1" as="geometry">
            <mxPoint x="80" y="490" as="sourcePoint" />
            <mxPoint x="130" y="440" as="targetPoint" />
          </mxGeometry>
        </mxCell>
        <mxCell id="NdVPO9rs2lfAndKPiK9c-55" value="" style="endArrow=classic;html=1;rounded=0;strokeColor=#182E3E;fontColor=#1A1A1A;exitX=0.698;exitY=1.014;exitDx=0;exitDy=0;exitPerimeter=0;entryX=0;entryY=0.75;entryDx=0;entryDy=0;" edge="1" parent="1" source="NdVPO9rs2lfAndKPiK9c-23" target="NdVPO9rs2lfAndKPiK9c-35">
          <mxGeometry width="50" height="50" relative="1" as="geometry">
            <mxPoint x="80" y="490" as="sourcePoint" />
            <mxPoint x="130" y="440" as="targetPoint" />
          </mxGeometry>
        </mxCell>
      </root>
    </mxGraphModel>
  </diagram>
</mxfile>
